<svg xmlns="http://www.w3.org/2000/svg" xmlns:xlink="http://www.w3.org/1999/xlink" width="500" zoomAndPan="magnify" viewBox="0 0 375 374.999991" height="500" preserveAspectRatio="xMidYMid meet" version="1.0"><rect x="-37.5" width="450" fill="#ffffff" y="-37.499999" height="449.999989" fill-opacity="1"/><rect x="-37.5" width="450" fill="#ffffff" y="-37.499999" height="449.999989" fill-opacity="1"/><path stroke-linecap="round" transform="matrix(0.419027, -0.622026, 0.622026, 0.419027, 49.0228, 303.235557)" fill="none" stroke-linejoin="miter" d="M 26.499707 26.498057 L 381.345861 26.499913 " stroke="#000000" stroke-width="53" stroke-opacity="1" stroke-miterlimit="4"/><path stroke-linecap="round" transform="matrix(0.417012, -0.623379, 0.623379, 0.417012, 125.268731, 303.498789)" fill="none" stroke-linejoin="miter" d="M 26.001542 26.001259 L 377.55626 25.999807 " stroke="#000000" stroke-width="52" stroke-opacity="1" stroke-miterlimit="4"/><path stroke-linecap="round" transform="matrix(0, -0.75, 0.75, 0, 280.835288, 318.129442)" fill="none" stroke-linejoin="miter" d="M 25.500716 25.500868 L 319.235111 25.500868 " stroke="#000000" stroke-width="51" stroke-opacity="1" stroke-miterlimit="4"/><path stroke-linecap="round" transform="matrix(-0.434614, -0.611237, 0.611237, -0.434614, 116.796911, 164.060615)" fill="none" stroke-linejoin="miter" d="M 22.000454 22.001921 L 129.635118 21.999106 " stroke="#000000" stroke-width="44" stroke-opacity="1" stroke-miterlimit="4"/><path stroke-linecap="round" transform="matrix(-0.75, 0, 0, -0.75, 178.607659, 90.159143)" fill="none" stroke-linejoin="miter" d="M 22.997714 22.99865 L 140.84668 22.99865 " stroke="#000000" stroke-width="46" stroke-opacity="1" stroke-miterlimit="4"/></svg>